<?xml version="1.0" encoding="UTF-8" standalone="no"?>
<svg
   version="1.1"
   width="24"
   height="24"
   viewBox="0 0 24 24"
   id="svg4"
   sodipodi:docname="logo.svg"
   inkscape:version="1.1.2 (0a00cf5339, 2022-02-04, custom)"
   xmlns:inkscape="http://www.inkscape.org/namespaces/inkscape"
   xmlns:sodipodi="http://sodipodi.sourceforge.net/DTD/sodipodi-0.dtd"
   xmlns="http://www.w3.org/2000/svg"
   xmlns:svg="http://www.w3.org/2000/svg">
  <defs
     id="defs8" />
  <sodipodi:namedview
     id="namedview6"
     pagecolor="#ffffff"
     bordercolor="#666666"
     borderopacity="1.0"
     inkscape:pageshadow="2"
     inkscape:pageopacity="0.0"
     inkscape:pagecheckerboard="0"
     showgrid="false"
     inkscape:zoom="10.59187"
     inkscape:cx="13.359303"
     inkscape:cy="8.733113"
     inkscape:window-width="1914"
     inkscape:window-height="995"
     inkscape:window-x="1920"
     inkscape:window-y="40"
     inkscape:window-maximized="1"
     inkscape:current-layer="svg4" />
  <path
     d="M 11,21 H 3 v -6 h 8 z"
     id="path1128"
     style="fill:#2196f3;fill-opacity:1"
     inkscape:export-filename="/home/luna/logo.png"
     inkscape:export-xdpi="1024"
     inkscape:export-ydpi="1024" />
  <path
     d="M 11,13 H 3 V 3 h 8 v 10"
     id="path1126"
     style="fill:#3f51b5;fill-opacity:1" />
  <path
     d="M 13,18.06 V 11 h 8 v 0.1 c -0.76,0 -1.43,0.4 -1.81,0.79 L 13,18.06"
     id="path1124"
     style="fill:#ef5350;fill-opacity:1" />
  <path
     d="M 21,9 H 13 V 3 h 8 v 6"
     id="path1122"
     style="fill:#66bb6a;fill-opacity:1" />
  <path
     d="m 19.1,14.9 -6.1,6 V 23 h 2.1 l 6.1,-6.1 -2.1,-2"
     id="path1120"
     style="fill:#ff9800;fill-opacity:1" />
  <path
     d="m 21,13.1 c -0.1,0 -0.3,0.1 -0.4,0.2 l -1,1 2.1,2.1 1,-1 c 0.2,-0.2 0.2,-0.6 0,-0.8 L 21.4,13.3 C 21.3,13.2 21.2,13.1 21,13.1"
     id="path2"
     style="fill:#ff9800;fill-opacity:1" />
</svg>
